<svg width="32" height="32" viewBox="0 0 32 32" fill="none" xmlns="http://www.w3.org/2000/svg">
<path d="M21.6 4.80029C22.6155 4.80014 23.5931 5.18627 24.3344 5.88036C25.0758 6.57445 25.5253 7.52453 25.592 8.53789L25.6 8.80029V12.8803C26.4573 13.0556 27.2335 13.5072 27.8097 14.1658C28.386 14.8243 28.7304 15.6537 28.7903 16.5267L28.8 16.8003V26.4003C28.8003 26.6002 28.7258 26.793 28.5911 26.9407C28.4565 27.0885 28.2713 27.1804 28.0722 27.1985C27.8731 27.2166 27.6745 27.1594 27.5154 27.0383C27.3563 26.9173 27.2484 26.741 27.2128 26.5443L27.2 26.4003V22.4003H4.79995V26.4003C4.80032 26.6002 4.72583 26.793 4.59114 26.9407C4.45645 27.0885 4.27133 27.1804 4.07224 27.1985C3.87314 27.2166 3.6745 27.1594 3.51542 27.0383C3.35635 26.9173 3.24837 26.741 3.21275 26.5443L3.19995 26.4003V16.8003C3.19976 15.8782 3.51818 14.9843 4.10131 14.27C4.68443 13.5556 5.49646 13.0647 6.39995 12.8803V8.80029C6.39979 7.78474 6.78592 6.80716 7.48001 6.06582C8.17411 5.32449 9.12419 4.87491 10.1376 4.80829L10.4 4.80029H21.6ZM24.8 14.4003H7.19995C6.60359 14.4003 6.02858 14.6223 5.58698 15.0231C5.14537 15.4239 4.8688 15.9747 4.81115 16.5683L4.79995 16.8003V20.8003H27.2V16.8003C27.2 16.2039 26.9779 15.6289 26.5772 15.1873C26.1764 14.7457 25.6255 14.4691 25.032 14.4115L24.8 14.4003ZM21.6 6.40029H10.4C9.80334 6.40032 9.22813 6.62256 8.78648 7.02368C8.34484 7.4248 8.06843 7.97604 8.01115 8.56989L7.99995 8.80029V12.8003H9.59995V12.0003C9.59995 11.7881 9.68424 11.5846 9.83427 11.4346C9.98429 11.2846 10.1878 11.2003 10.4 11.2003H14.4C14.6121 11.2003 14.8156 11.2846 14.9656 11.4346C15.1157 11.5846 15.2 11.7881 15.2 12.0003V12.8003H16.8V12.0003C16.8 11.7881 16.8842 11.5846 17.0343 11.4346C17.1843 11.2846 17.3878 11.2003 17.6 11.2003H21.6C21.8121 11.2003 22.0156 11.2846 22.1656 11.4346C22.3157 11.5846 22.4 11.7881 22.4 12.0003V12.8003H24V8.80029C24 8.20393 23.7779 7.62893 23.3772 7.18732C22.9764 6.74571 22.4255 6.46914 21.832 6.41149L21.6 6.40029Z" fill="#070707"/>
</svg>
