<svg width="35" height="35" viewBox="0 0 35 35" fill="none" xmlns="http://www.w3.org/2000/svg">
<path d="M17.4999 30.625C15.6579 29.0538 13.9506 27.3314 12.3957 25.4756C10.0624 22.6887 7.29157 18.5383 7.29157 14.5833C7.29055 12.5635 7.88877 10.5887 9.01049 8.90899C10.1322 7.22925 11.727 5.92004 13.5931 5.14703C15.4592 4.37402 17.5127 4.17198 19.4936 4.56646C21.4746 4.96094 23.294 5.93422 24.7216 7.36312C25.672 8.30937 26.4254 9.43473 26.9381 10.6741C27.4507 11.9134 27.7125 13.2421 27.7082 14.5833C27.7082 18.5383 24.9374 22.6887 22.6041 25.4756C21.0492 27.3314 19.3419 29.0538 17.4999 30.625ZM17.4999 10.2083C16.3396 10.2083 15.2268 10.6693 14.4063 11.4897C13.5858 12.3102 13.1249 13.423 13.1249 14.5833C13.1249 15.7436 13.5858 16.8564 14.4063 17.6769C15.2268 18.4974 16.3396 18.9583 17.4999 18.9583C18.6602 18.9583 19.773 18.4974 20.5935 17.6769C21.414 16.8564 21.8749 15.7436 21.8749 14.5833C21.8749 13.423 21.414 12.3102 20.5935 11.4897C19.773 10.6693 18.6602 10.2083 17.4999 10.2083Z" fill="#F15A29"/>
</svg>
