<svg width="32" height="32" viewBox="0 0 32 32" fill="none" xmlns="http://www.w3.org/2000/svg">
<path d="M29 17.4998H5V6.24984C4.99884 5.82617 5.08173 5.40648 5.24386 5.01506C5.406 4.62365 5.64416 4.26828 5.94456 3.96952L5.96956 3.94452C6.44035 3.47443 7.0448 3.16114 7.70032 3.04746C8.35584 2.93379 9.03048 3.02526 9.63206 3.3094C9.06392 4.25402 8.82777 5.36142 8.96115 6.45564C9.09452 7.54985 9.58977 8.5681 10.3682 9.34859L11.0526 10.033L9.79281 11.2929L11.2069 12.707L12.4668 11.4472L19.4473 4.46677L20.7071 3.20696L19.2929 1.79277L18.0331 3.05259L17.3486 2.36815C16.5292 1.55098 15.449 1.04725 14.2962 0.944732C13.1435 0.842216 11.9914 1.14742 11.0406 1.80715C10.0379 1.17397 8.84979 0.900622 7.67128 1.03201C6.49277 1.1634 5.39399 1.69171 4.55544 2.53015L4.53044 2.55515C4.04371 3.03921 3.65783 3.615 3.39513 4.24919C3.13243 4.88339 2.99813 5.56339 3 6.24984V17.4998H1V19.4998H3V21.4186C2.99996 21.5798 3.02596 21.74 3.077 21.8929L4.9375 27.4742C5.03679 27.773 5.2277 28.0329 5.48313 28.217C5.73855 28.4011 6.0455 28.5001 6.36038 28.4998H7.16663L6.4375 30.9998H8.52081L9.25 28.4998H22.2563L23.0063 30.9998H25.0938L24.3438 28.4998H25.6394C25.9543 28.5002 26.2613 28.4012 26.5168 28.2171C26.7723 28.033 26.9632 27.773 27.0625 27.4742L28.9229 21.8929C28.9739 21.74 29 21.5798 29 21.4186V19.4998H31V17.4998H29ZM11.7825 3.78234C12.3335 3.23254 13.0801 2.92377 13.8585 2.92377C14.6369 2.92377 15.3834 3.23254 15.9344 3.78234L16.6188 4.46677L12.4669 8.61859L11.7825 7.93428C11.2327 7.38326 10.924 6.63668 10.924 5.85831C10.924 5.07994 11.2327 4.33335 11.7825 3.78234ZM27 21.3373L25.2793 26.4998H6.72075L5 21.3373V19.4998H27V21.3373Z" fill="#070707"/>
</svg>
