<svg width="33" height="32" viewBox="0 0 33 32" fill="none" xmlns="http://www.w3.org/2000/svg">
<path d="M27.167 11.4282V5.33301M27.167 5.33301H21.0718M27.167 5.33301L14.9766 17.5235M14.9766 11.4282V17.5235M14.9766 17.5235H21.0718" stroke="#070707" stroke-width="1.1027" stroke-linecap="round" stroke-linejoin="round"/>
<path d="M18.0243 5.33301H8.88148C8.0732 5.33301 7.29803 5.6541 6.72649 6.22563C6.15495 6.79717 5.83386 7.57235 5.83386 8.38063V23.6187C5.83386 24.427 6.15495 25.2022 6.72649 25.7737C7.29803 26.3453 8.0732 26.6663 8.88148 26.6663H24.1196C24.9279 26.6663 25.703 26.3453 26.2746 25.7737C26.8461 25.2022 27.1672 24.427 27.1672 23.6187V14.4759" stroke="#070707" stroke-width="1.1027" stroke-linecap="round" stroke-linejoin="round"/>
</svg>
